<?xml version="1.0" standalone="no"?>
<!DOCTYPE svg PUBLIC "-//W3C//DTD SVG 20010904//EN"
 "http://www.w3.org/TR/2001/REC-SVG-20010904/DTD/svg10.dtd">
<svg version="1.0" xmlns="http://www.w3.org/2000/svg"
 width="800.000000pt" height="800.000000pt" viewBox="0 0 800.000000 800.000000"
 preserveAspectRatio="xMidYMid meet">
<metadata>
Created by potrace 1.14, written by Peter Selinger 2001-2017
</metadata>
<g transform="translate(0.000000,800.000000) scale(0.100000,-0.100000)"
fill="#000000" stroke="none">
<path d="M2917 6635 c-846 -103 -1578 -596 -2004 -1350 -111 -195 -214 -470
-267 -705 -78 -351 -80 -755 -6 -1115 102 -494 355 -961 719 -1326 414 -414
928 -669 1526 -755 147 -21 503 -24 650 -5 612 77 1138 333 1566 760 208 209
357 412 483 661 201 395 289 761 290 1200 0 230 -25 467 -51 477 -8 3 -67 -3
-131 -13 l-117 -19 1 -35 c0 -19 6 -89 13 -154 19 -165 9 -503 -18 -648 -47
-255 -103 -423 -216 -654 -118 -238 -236 -404 -429 -602 -389 -398 -879 -638
-1435 -702 -151 -18 -524 -7 -661 18 -377 71 -684 200 -984 415 -532 379 -884
972 -971 1630 -17 136 -20 404 -4 545 31 290 119 581 254 839 335 642 917
1081 1635 1233 81 18 179 47 245 74 206 83 436 144 641 167 133 15 141 20 59
36 -225 43 -561 55 -788 28z"/>
<path d="M3775 6454 c-369 -39 -676 -132 -1001 -304 -723 -382 -1366 -1117
-1734 -1983 l-52 -122 7 -130 c3 -71 10 -148 14 -170 l8 -40 29 65 c228 517
535 969 915 1350 71 72 124 130 118 130 -21 0 -175 -91 -249 -147 -39 -29 -74
-53 -77 -53 -9 0 118 140 232 254 363 365 779 659 1145 809 306 124 577 173
910 164 277 -8 514 -53 770 -146 111 -41 390 -180 397 -197 6 -15 -66 -115
-181 -254 -91 -109 -189 -210 -182 -187 3 10 9 43 12 72 6 47 10 55 36 66 35
14 103 89 117 130 l10 30 -33 -20 c-53 -33 -125 -28 -221 15 -204 91 -264 108
-380 107 -59 -1 -106 -10 -177 -32 -89 -27 -231 -52 -217 -37 3 3 25 16 49 29
68 36 60 43 -37 36 -49 -4 -160 -5 -248 -2 -329 12 -554 -47 -742 -193 -66
-51 -63 -54 15 -15 151 76 304 111 482 111 242 0 468 -70 643 -198 51 -36 50
-51 -3 -52 -29 0 -120 -41 -137 -61 -10 -12 5 -14 100 -14 100 0 118 -3 167
-26 148 -69 215 -206 160 -326 -10 -24 -20 -43 -22 -43 -2 0 -1 22 0 49 2 26
2 59 0 72 -3 22 -6 20 -26 -18 -35 -67 -120 -147 -199 -186 -98 -50 -203 -74
-394 -92 -215 -20 -309 -39 -396 -80 l-72 -34 -7 36 c-4 19 -3 83 0 141 13
188 48 336 117 496 21 50 37 91 35 93 -2 2 -30 -16 -62 -40 -86 -63 -189 -170
-251 -262 -54 -78 -55 -79 -48 -40 9 56 42 130 87 199 21 32 37 61 34 63 -7 7
-174 -66 -316 -137 -256 -130 -485 -296 -699 -504 -205 -202 -376 -424 -515
-671 -31 -55 -56 -97 -56 -93 0 20 68 196 106 273 121 248 306 466 634 745
125 107 135 118 65 80 -426 -236 -778 -627 -1045 -1161 -130 -259 -296 -689
-286 -740 7 -35 96 -239 105 -239 3 0 14 28 24 63 36 123 80 235 157 392 84
172 126 241 89 145 -95 -244 -150 -479 -165 -700 l-6 -95 68 -95 c292 -411
678 -697 1144 -850 709 -233 1501 -89 2091 381 94 74 335 319 358 362 13 24
11 34 -17 109 -84 224 -122 423 -125 645 -1 84 -4 153 -7 153 -3 -1 -30 -42
-60 -91 -130 -213 -314 -417 -488 -539 -51 -36 -96 -66 -101 -68 -4 -1 31 37
79 86 193 197 284 339 511 797 93 187 200 396 238 465 48 87 65 126 55 128
-16 4 -164 -40 -230 -68 -26 -11 -49 -19 -51 -16 -9 9 189 131 302 186 200 98
402 159 655 199 188 30 325 41 660 51 475 14 670 53 883 174 l77 44 82 -49
c46 -28 92 -59 104 -70 12 -11 24 -17 27 -12 8 15 -12 157 -34 227 -75 248
-296 473 -614 626 -322 155 -890 329 -1415 435 -166 33 -195 42 -291 90 -307
155 -647 267 -939 310 -102 15 -434 27 -515 19z m1906 -643 c20 -7 16 -9 -25
-20 -51 -12 -161 -64 -170 -80 -3 -4 25 -1 62 7 87 21 414 23 522 4 140 -25
397 -91 535 -137 301 -100 508 -226 672 -406 46 -52 113 -141 113 -153 0 -2
-60 26 -132 64 -390 202 -771 307 -1196 329 -175 9 -422 -1 -567 -23 -54 -8
-101 -13 -103 -11 -2 2 36 27 85 55 48 29 90 54 93 57 13 12 -88 -13 -209 -54
-241 -79 -483 -218 -660 -377 -46 -42 -85 -76 -87 -76 -8 0 102 169 160 245
33 44 98 118 143 165 79 81 82 83 67 45 -9 -22 -28 -60 -42 -85 -25 -44 -23
-42 61 37 101 95 174 149 307 228 52 30 89 55 83 55 -24 0 -169 -53 -241 -87
-42 -21 -80 -39 -84 -41 -22 -10 -1 22 52 81 95 103 202 163 335 187 54 10
191 5 226 -9z m-1103 -73 c107 -40 152 -109 118 -180 -25 -51 -61 -72 -133
-76 -79 -5 -139 22 -183 81 -57 78 -60 139 -7 169 70 41 108 42 205 6z m1868
-612 c225 -29 397 -68 612 -138 126 -40 161 -59 62 -33 -169 45 -444 93 -665
116 -155 16 -615 16 -770 0 -235 -24 -481 -67 -670 -116 -33 -9 -69 -18 -80
-21 -59 -15 24 18 135 55 230 75 498 130 735 151 139 12 495 4 641 -14z
m-3611 -328 c-94 -199 -129 -353 -129 -573 0 -170 18 -287 66 -425 33 -94 103
-239 146 -303 47 -70 48 -71 21 -56 -84 44 -229 179 -315 294 -125 167 -227
457 -223 634 l1 46 12 -55 c18 -82 55 -187 89 -255 33 -67 118 -198 124 -191
2 2 -1 44 -8 92 -38 285 41 587 219 837 19 26 35 47 37 47 2 0 -16 -42 -40
-92z m1309 -15 c-27 -37 -120 -142 -207 -231 -176 -182 -252 -274 -339 -407
-32 -49 -58 -87 -58 -84 0 9 47 141 65 184 31 74 113 199 180 278 l66 77 -74
0 c-152 0 -368 -53 -527 -130 -96 -47 -91 -30 15 45 121 86 207 118 464 170
235 48 323 80 421 148 19 14 37 23 39 21 2 -2 -18 -34 -45 -71z m67 -260 c-74
-76 -173 -183 -220 -237 -94 -108 -271 -329 -267 -333 1 -2 47 20 102 47 105
53 231 97 356 125 102 22 130 15 54 -14 -88 -33 -280 -133 -371 -193 -183
-120 -401 -322 -525 -485 -67 -88 -59 -61 45 152 202 410 482 738 863 1012 48
34 89 63 92 63 3 0 -55 -62 -129 -137z"/>
</g>
</svg>
